ffmpeg started on 2016-12-12 at 06:46:27
Report written to "Output/theora/results/ffmpeg/crowd_run_2160p507000k.log"
Command line:
Tools/ffmpeg/ffmpeg -benchmark -y -i Input/y4m/crowd_run_2160p50.y4m -c:v libtheora -b:v 7000k -an Output/theora/encoded/crowd_run_2160p507000k.mkv
ffmpeg version N-82227-gdb23fde Copyright (c) 2000-2016 the FFmpeg developers
  built with gcc 5.4.0 (Ubuntu 5.4.0-6ubuntu1~16.04.2) 20160609
  configuration: --prefix=/home/jaroslav/ffmpeg_build --pkg-config-flags=--static --extra-cflags=-I/home/jaroslav/ffmpeg_build/include --extra-ldflags=-L/home/jaroslav/ffmpeg_build/lib --bindir=/home/jaroslav/bin --enable-gpl --enable-libass --enable-libfdk-aac --enable-libfreetype --enable-libmp3lame --enable-libopus --enable-libtheora --enable-libvorbis --enable-libvpx --enable-libx264 --enable-libx265 --enable-nvenc --enable-libmfx --enable-libxvid --enable-libgsm --enable-libopencore-amrnb --enable-version3 --enable-nonfree
  libavutil      55. 35.100 / 55. 35.100
  libavcodec     57. 66.101 / 57. 66.101
  libavformat    57. 57.100 / 57. 57.100
  libavdevice    57.  2.100 / 57.  2.100
  libavfilter     6. 66.100 /  6. 66.100
  libswscale      4.  3.100 /  4.  3.100
  libswresample   2.  4.100 /  2.  4.100
  libpostproc    54.  2.100 / 54.  2.100
Input #0, yuv4mpegpipe, from 'Input/y4m/crowd_run_2160p50.y4m':
  Duration: 00:00:10.00, start: 0.000000, bitrate: 4976642 kb/s
    Stream #0:0: Video: rawvideo (I420 / 0x30323449), yuv420p(progressive), 3840x2160, SAR 1:1 DAR 16:9, 50 fps, 50 tbr, 50 tbn, 50 tbc
Output #0, matroska, to 'Output/theora/encoded/crowd_run_2160p507000k.mkv':
  Metadata:
    encoder         : Lavf57.57.100
    Stream #0:0: Video: theora (libtheora) (theo / 0x6F656874), yuv420p, 3840x2160 [SAR 1:1 DAR 16:9], q=2-31, 7000 kb/s, 50 fps, 1k tbn, 50 tbc
    Metadata:
      encoder         : Lavc57.66.101 libtheora
Stream mapping:
  Stream #0:0 -> #0:0 (rawvideo (native) -> theora (libtheora))
Press [q] to stop, [?] for help
frame=    3 fps=0.0 q=-0.0 size=       4kB time=00:00:00.04 bitrate= 779.5kbits/s speed=0.052x    frame=    5 fps=3.4 q=-0.0 size=       4kB time=00:00:00.08 bitrate= 394.6kbits/s speed=0.0551x    frame=    7 fps=1.3 q=-0.0 size=       4kB time=00:00:00.12 bitrate= 264.1kbits/s speed=0.0221x    frame=    8 fps=0.8 q=-0.0 size=       4kB time=00:00:00.14 bitrate= 226.7kbits/s speed=0.0149x    frame=    9 fps=0.8 q=-0.0 size=       4kB time=00:00:00.16 bitrate= 198.5kbits/s speed=0.0148x    frame=   11 fps=1.0 q=-0.0 size=       4kB time=00:00:00.20 bitrate= 159.0kbits/s speed=0.0174x    frame=   13 fps=1.1 q=-0.0 size=     500kB time=00:00:00.24 bitrate=16990.9kbits/s speed=0.0197x    frame=   15 fps=1.2 q=-0.0 size=     500kB time=00:00:00.28 bitrate=14572.2kbits/s speed=0.022x    frame=   16 fps=1.2 q=-0.0 size=     500kB time=00:00:00.30 bitrate=13604.0kbits/s speed=0.0224x    frame=   18 fps=1.3 q=-0.0 size=     500kB time=00:00:00.34 bitrate=12008.2kbits/s speed=0.0241x    frame=   20 fps=1.3 q=-0.0 size=     500kB time=00:00:00.38 bitrate=10747.5kbits/s speed=0.0257x    frame=   22 fps=1.4 q=-0.0 size=     500kB time=00:00:00.42 bitrate=9726.4kbits/s speed=0.0267x    frame=   24 fps=1.5 q=-0.0 size=     500kB time=00:00:00.46 bitrate=8882.4kbits/s speed=0.028x    frame=   26 fps=1.5 q=-0.0 size=    1011kB time=00:00:00.50 bitrate=16533.3kbits/s speed=0.0294x    frame=   28 fps=1.6 q=-0.0 size=    1011kB time=00:00:00.54 bitrate=15310.8kbits/s speed=0.0306x    frame=   30 fps=1.6 q=-0.0 size=    1011kB time=00:00:00.58 bitrate=14256.7kbits/s speed=0.0316x    frame=   32 fps=1.7 q=-0.0 size=    1011kB time=00:00:00.62 bitrate=13338.4kbits/s speed=0.0326x    frame=   34 fps=1.7 q=-0.0 size=    1011kB time=00:00:00.66 bitrate=12531.3kbits/s speed=0.0334x    frame=   36 fps=1.8 q=-0.0 size=    1011kB time=00:00:00.70 bitrate=11816.2kbits/s speed=0.0343x    frame=   38 fps=1.8 q=-0.0 size=    1404kB time=00:00:00.74 bitrate=15519.8kbits/s speed=0.0353x    frame=   40 fps=1.8 q=-0.0 size=    1404kB time=00:00:00.78 bitrate=14724.9kbits/s speed=0.0361x    frame=   42 fps=1.9 q=-0.0 size=    1404kB time=00:00:00.82 bitrate=14007.5kbits/s speed=0.0367x    frame=   44 fps=1.9 q=-0.0 size=    1404kB time=00:00:00.86 bitrate=13356.8kbits/s speed=0.0374x    frame=   45 fps=1.9 q=-0.0 size=    1404kB time=00:00:00.88 bitrate=13053.5kbits/s speed=0.037x    frame=   47 fps=1.9 q=-0.0 size=    1404kB time=00:00:00.92 bitrate=12486.6kbits/s speed=0.0372x    frame=   49 fps=1.9 q=-0.0 size=    1602kB time=00:00:00.96 bitrate=13656.5kbits/s speed=0.0378x    frame=   51 fps=2.0 q=-0.0 size=    1602kB time=00:00:01.00 bitrate=13110.8kbits/s speed=0.0386x    frame=   53 fps=2.0 q=-0.0 size=    1602kB time=00:00:01.04 bitrate=12607.0kbits/s speed=0.0391x    frame=   55 fps=2.0 q=-0.0 size=    1602kB time=00:00:01.08 bitrate=12140.5kbits/s speed=0.0396x    frame=   57 fps=2.0 q=-0.0 size=    1602kB time=00:00:01.12 bitrate=11707.3kbits/s speed=0.04x    frame=   59 fps=2.1 q=-0.0 size=    1602kB time=00:00:01.16 bitrate=11303.9kbits/s speed=0.0404x    frame=   61 fps=2.1 q=-0.0 size=    1807kB time=00:00:01.20 bitrate=12322.8kbits/s speed=0.0408x    frame=   63 fps=2.1 q=-0.0 size=    1807kB time=00:00:01.24 bitrate=11925.6kbits/s speed=0.0415x    frame=   65 fps=2.1 q=-0.0 size=    1807kB time=00:00:01.28 bitrate=11553.2kbits/s speed=0.0418x    frame=   67 fps=2.1 q=-0.0 size=    1807kB time=00:00:01.32 bitrate=11203.4kbits/s speed=0.0422x    frame=   69 fps=2.2 q=-0.0 size=    1807kB time=00:00:01.36 bitrate=10874.1kbits/s speed=0.0425x    frame=   71 fps=2.2 q=-0.0 size=    1807kB time=00:00:01.40 bitrate=10563.6kbits/s speed=0.0428x    frame=   72 fps=2.2 q=-0.0 size=    1807kB time=00:00:01.42 bitrate=10415.0kbits/s speed=0.0425x    frame=   74 fps=2.2 q=-0.0 size=    2009kB time=00:00:01.46 bitrate=11264.9kbits/s speed=0.043x    frame=   76 fps=2.2 q=-0.0 size=    2009kB time=00:00:01.50 bitrate=10964.7kbits/s speed=0.0433x    frame=   78 fps=2.2 q=-0.0 size=    2009kB time=00:00:01.54 bitrate=10680.1kbits/s speed=0.0436x    frame=   80 fps=2.2 q=-0.0 size=    2009kB time=00:00:01.58 bitrate=10409.8kbits/s speed=0.0439x    frame=   82 fps=2.2 q=-0.0 size=    2009kB time=00:00:01.62 bitrate=10153.0kbits/s speed=0.0441x    frame=   84 fps=2.2 q=-0.0 size=    2009kB time=00:00:01.66 bitrate=9908.5kbits/s speed=0.0444x    frame=   86 fps=2.3 q=-0.0 size=    2206kB time=00:00:01.70 bitrate=10622.1kbits/s speed=0.0448x    frame=   88 fps=2.3 q=-0.0 size=    2206kB time=00:00:01.74 bitrate=10378.0kbits/s speed=0.0451x    frame=   90 fps=2.3 q=-0.0 size=    2206kB time=00:00:01.78 bitrate=10145.0kbits/s speed=0.0453x    frame=   92 fps=2.3 q=-0.0 size=    2206kB time=00:00:01.82 bitrate=9922.1kbits/s speed=0.0455x    frame=   94 fps=2.3 q=-0.0 size=    2206kB time=00:00:01.86 bitrate=9708.9kbits/s speed=0.0457x    frame=   96 fps=2.3 q=-0.0 size=    2206kB time=00:00:01.90 bitrate=9504.6kbits/s speed=0.0459x    frame=   98 fps=2.3 q=-0.0 size=    2447kB time=00:00:01.94 bitrate=10328.4kbits/s speed=0.0463x    frame=  100 fps=2.3 q=-0.0 size=    2447kB time=00:00:01.98 bitrate=10119.8kbits/s speed=0.0465x    frame=  102 fps=2.4 q=-0.0 size=    2447kB time=00:00:02.02 bitrate=9919.6kbits/s speed=0.0467x    frame=  104 fps=2.4 q=-0.0 size=    2447kB time=00:00:02.06 bitrate=9727.0kbits/s speed=0.0469x    frame=  106 fps=2.4 q=-0.0 size=    2447kB time=00:00:02.10 bitrate=9541.8kbits/s speed=0.047x    frame=  108 fps=2.4 q=-0.0 size=    2447kB time=00:00:02.14 bitrate=9363.6kbits/s speed=0.0472x    frame=  110 fps=2.4 q=-0.0 size=    2640kB time=00:00:02.18 bitrate=9914.6kbits/s speed=0.0475x    frame=  112 fps=2.4 q=-0.0 size=    2640kB time=00:00:02.22 bitrate=9736.0kbits/s speed=0.0477x    frame=  114 fps=2.4 q=-0.0 size=    2640kB time=00:00:02.26 bitrate=9563.8kbits/s speed=0.0479x    frame=  116 fps=2.4 q=-0.0 size=    2640kB time=00:00:02.30 bitrate=9397.5kbits/s speed=0.048x    frame=  118 fps=2.4 q=-0.0 size=    2640kB time=00:00:02.34 bitrate=9236.9kbits/s speed=0.0482x    frame=  120 fps=2.4 q=-0.0 size=    2640kB time=00:00:02.38 bitrate=9081.8kbits/s speed=0.0483x    frame=  122 fps=2.4 q=-0.0 size=    2833kB time=00:00:02.42 bitrate=9586.1kbits/s speed=0.0486x    frame=  124 fps=2.5 q=-0.0 size=    2833kB time=00:00:02.46 bitrate=9430.3kbits/s speed=0.0488x    frame=  126 fps=2.5 q=-0.0 size=    2833kB time=00:00:02.50 bitrate=9279.4kbits/s speed=0.0489x    frame=  128 fps=2.5 q=-0.0 size=    2833kB time=00:00:02.54 bitrate=9133.4kbits/s speed=0.049x    frame=  130 fps=2.5 q=-0.0 size=    2833kB time=00:00:02.58 bitrate=8991.8kbits/s speed=0.0491x    frame=  132 fps=2.5 q=-0.0 size=    2833kB time=00:00:02.62 bitrate=8854.6kbits/s speed=0.0493x    frame=  134 fps=2.5 q=-0.0 size=    3025kB time=00:00:02.66 bitrate=9313.3kbits/s speed=0.0495x    frame=  136 fps=2.5 q=-0.0 size=    3025kB time=00:00:02.70 bitrate=9175.4kbits/s speed=0.0496x    frame=  138 fps=2.5 q=-0.0 size=    3025kB time=00:00:02.74 bitrate=9041.5kbits/s speed=0.0497x    frame=  140 fps=2.5 q=-0.0 size=    3025kB time=00:00:02.78 bitrate=8911.4kbits/s speed=0.0498x    frame=  142 fps=2.5 q=-0.0 size=    3025kB time=00:00:02.82 bitrate=8785.1kbits/s speed=0.0499x    frame=  144 fps=2.5 q=-0.0 size=    3025kB time=00:00:02.86 bitrate=8662.2kbits/s speed=0.05x    frame=  146 fps=2.5 q=-0.0 size=    3281kB time=00:00:02.90 bitrate=9266.1kbits/s speed=0.0502x    frame=  148 fps=2.5 q=-0.0 size=    3281kB time=00:00:02.94 bitrate=9140.1kbits/s speed=0.0504x    frame=  150 fps=2.5 q=-0.0 size=    3281kB time=00:00:02.98 bitrate=9017.5kbits/s speed=0.0504x    frame=  152 fps=2.5 q=-0.0 size=    3281kB time=00:00:03.02 bitrate=8898.1kbits/s speed=0.0505x    frame=  154 fps=2.5 q=-0.0 size=    3281kB time=00:00:03.06 bitrate=8781.8kbits/s speed=0.0506x    frame=  156 fps=2.5 q=-0.0 size=    3281kB time=00:00:03.10 bitrate=8668.5kbits/s speed=0.0507x    frame=  158 fps=2.6 q=-0.0 size=    3478kB time=00:00:03.14 bitrate=9071.6kbits/s speed=0.0509x    frame=  160 fps=2.6 q=-0.0 size=    3478kB time=00:00:03.18 bitrate=8957.5kbits/s speed=0.051x    frame=  162 fps=2.6 q=-0.0 size=    3478kB time=00:00:03.22 bitrate=8846.3kbits/s speed=0.051x    frame=  164 fps=2.6 q=-0.0 size=    3478kB time=00:00:03.26 bitrate=8737.7kbits/s speed=0.0511x    frame=  166 fps=2.6 q=-0.0 size=    3478kB time=00:00:03.30 bitrate=8631.9kbits/s speed=0.0512x    frame=  168 fps=2.6 q=-0.0 size=    3478kB time=00:00:03.34 bitrate=8528.5kbits/s speed=0.0512x    frame=  170 fps=2.6 q=-0.0 size=    3679kB time=00:00:03.38 bitrate=8913.7kbits/s speed=0.0514x    frame=  172 fps=2.6 q=-0.0 size=    3679kB time=00:00:03.42 bitrate=8809.4kbits/s speed=0.0515x    frame=  174 fps=2.6 q=-0.0 size=    3679kB time=00:00:03.46 bitrate=8707.6kbits/s speed=0.0516x    frame=  176 fps=2.6 q=-0.0 size=    3679kB time=00:00:03.50 bitrate=8608.1kbits/s speed=0.0516x    frame=  178 fps=2.6 q=-0.0 size=    3679kB time=00:00:03.54 bitrate=8510.9kbits/s speed=0.0517x    frame=  180 fps=2.6 q=-0.0 size=    3679kB time=00:00:03.58 bitrate=8415.8kbits/s speed=0.0517x    frame=  182 fps=2.6 q=-0.0 size=    3876kB time=00:00:03.62 bitrate=8769.4kbits/s speed=0.0519x    frame=  184 fps=2.6 q=-0.0 size=    3876kB time=00:00:03.66 bitrate=8673.6kbits/s speed=0.052x    frame=  186 fps=2.6 q=-0.0 size=    3876kB time=00:00:03.70 bitrate=8579.8kbits/s speed=0.052x    frame=  188 fps=2.6 q=-0.0 size=    3876kB time=00:00:03.74 bitrate=8488.1kbits/s speed=0.0521x    frame=  190 fps=2.6 q=-0.0 size=    3876kB time=00:00:03.78 bitrate=8398.3kbits/s speed=0.0521x    frame=  192 fps=2.6 q=-0.0 size=    3876kB time=00:00:03.82 bitrate=8310.4kbits/s speed=0.0522x    frame=  194 fps=2.6 q=-0.0 size=    4074kB time=00:00:03.86 bitrate=8644.2kbits/s speed=0.0523x    frame=  196 fps=2.6 q=-0.0 size=    4074kB time=00:00:03.90 bitrate=8555.6kbits/s speed=0.0524x    frame=  198 fps=2.6 q=-0.0 size=    4074kB time=00:00:03.94 bitrate=8468.8kbits/s speed=0.0525x    frame=  200 fps=2.6 q=-0.0 size=    4074kB time=00:00:03.98 bitrate=8383.7kbits/s speed=0.0525x    frame=  202 fps=2.6 q=-0.0 size=    4074kB time=00:00:04.02 bitrate=8300.3kbits/s speed=0.0525x    frame=  204 fps=2.6 q=-0.0 size=    4074kB time=00:00:04.06 bitrate=8218.5kbits/s speed=0.0526x    frame=  206 fps=2.6 q=-0.0 size=    4273kB time=00:00:04.10 bitrate=8535.7kbits/s speed=0.0527x    frame=  208 fps=2.7 q=-0.0 size=    4273kB time=00:00:04.14 bitrate=8453.3kbits/s speed=0.0528x    frame=  210 fps=2.7 q=-0.0 size=    4273kB time=00:00:04.18 bitrate=8372.4kbits/s speed=0.0528x    frame=  212 fps=2.7 q=-0.0 size=    4273kB time=00:00:04.22 bitrate=8293.1kbits/s speed=0.0529x    frame=  214 fps=2.7 q=-0.0 size=    4273kB time=00:00:04.26 bitrate=8215.2kbits/s speed=0.0529x    frame=  216 fps=2.7 q=-0.0 size=    4273kB time=00:00:04.30 bitrate=8138.8kbits/s speed=0.0529x    frame=  218 fps=2.7 q=-0.0 size=    4476kB time=00:00:04.34 bitrate=8446.2kbits/s speed=0.0531x    frame=  220 fps=2.7 q=-0.0 size=    4476kB time=00:00:04.38 bitrate=8369.1kbits/s speed=0.0531x    frame=  222 fps=2.7 q=-0.0 size=    4476kB time=00:00:04.42 bitrate=8293.4kbits/s speed=0.0532x    frame=  224 fps=2.7 q=-0.0 size=    4476kB time=00:00:04.46 bitrate=8219.0kbits/s speed=0.0532x    frame=  226 fps=2.7 q=-0.0 size=    4476kB time=00:00:04.50 bitrate=8146.0kbits/s speed=0.0532x    frame=  228 fps=2.7 q=-0.0 size=    4476kB time=00:00:04.54 bitrate=8074.2kbits/s speed=0.0533x    frame=  230 fps=2.7 q=-0.0 size=    4678kB time=00:00:04.58 bitrate=8366.3kbits/s speed=0.0534x    frame=  232 fps=2.7 q=-0.0 size=    4678kB time=00:00:04.62 bitrate=8293.9kbits/s speed=0.0535x    frame=  234 fps=2.7 q=-0.0 size=    4678kB time=00:00:04.66 bitrate=8222.7kbits/s speed=0.0535x    frame=  236 fps=2.7 q=-0.0 size=    4678kB time=00:00:04.70 bitrate=8152.7kbits/s speed=0.0535x    frame=  238 fps=2.7 q=-0.0 size=    4678kB time=00:00:04.74 bitrate=8083.9kbits/s speed=0.0535x    frame=  240 fps=2.7 q=-0.0 size=    4678kB time=00:00:04.78 bitrate=8016.3kbits/s speed=0.0536x    frame=  242 fps=2.7 q=-0.0 size=    4888kB time=00:00:04.82 bitrate=8306.2kbits/s speed=0.0537x    frame=  244 fps=2.7 q=-0.0 size=    4888kB time=00:00:04.86 bitrate=8237.8kbits/s speed=0.0537x    frame=  246 fps=2.7 q=-0.0 size=    4888kB time=00:00:04.90 bitrate=8170.6kbits/s speed=0.0538x    frame=  248 fps=2.7 q=-0.0 size=    4888kB time=00:00:04.94 bitrate=8104.4kbits/s speed=0.0538x    frame=  250 fps=2.7 q=-0.0 size=    4888kB time=00:00:04.98 bitrate=8039.4kbits/s speed=0.0538x    frame=  252 fps=2.7 q=-0.0 size=    4888kB time=00:00:05.02 bitrate=7975.3kbits/s speed=0.0539x    frame=  254 fps=2.7 q=-0.0 size=    5090kB time=00:00:05.06 bitrate=8238.7kbits/s speed=0.054x    frame=  256 fps=2.7 q=-0.0 size=    5090kB time=00:00:05.10 bitrate=8174.1kbits/s speed=0.054x    frame=  258 fps=2.7 q=-0.0 size=    5090kB time=00:00:05.14 bitrate=8110.5kbits/s speed=0.054x    frame=  260 fps=2.7 q=-0.0 size=    5090kB time=00:00:05.18 bitrate=8047.9kbits/s speed=0.0541x    frame=  262 fps=2.7 q=-0.0 size=    5090kB time=00:00:05.22 bitrate=7986.2kbits/s speed=0.0541x    frame=  264 fps=2.7 q=-0.0 size=    5090kB time=00:00:05.26 bitrate=7925.5kbits/s speed=0.0541x    frame=  266 fps=2.7 q=-0.0 size=    5292kB time=00:00:05.30 bitrate=8178.4kbits/s speed=0.0542x    frame=  268 fps=2.7 q=-0.0 size=    5292kB time=00:00:05.34 bitrate=8117.2kbits/s speed=0.0543x    frame=  270 fps=2.7 q=-0.0 size=    5292kB time=00:00:05.38 bitrate=8056.9kbits/s speed=0.0543x    frame=  272 fps=2.7 q=-0.0 size=    5292kB time=00:00:05.42 bitrate=7997.4kbits/s speed=0.0543x    frame=  274 fps=2.7 q=-0.0 size=    5292kB time=00:00:05.46 bitrate=7938.8kbits/s speed=0.0543x    frame=  276 fps=2.7 q=-0.0 size=    5292kB time=00:00:05.50 bitrate=7881.1kbits/s speed=0.0543x    frame=  278 fps=2.7 q=-0.0 size=    5496kB time=00:00:05.54 bitrate=8125.4kbits/s speed=0.0544x    frame=  280 fps=2.7 q=-0.0 size=    5496kB time=00:00:05.58 bitrate=8067.2kbits/s speed=0.0545x    frame=  282 fps=2.7 q=-0.0 size=    5496kB time=00:00:05.62 bitrate=8009.8kbits/s speed=0.0545x    frame=  284 fps=2.7 q=-0.0 size=    5496kB time=00:00:05.66 bitrate=7953.2kbits/s speed=0.0545x    frame=  286 fps=2.7 q=-0.0 size=    5496kB time=00:00:05.70 bitrate=7897.4kbits/s speed=0.0545x    frame=  288 fps=2.7 q=-0.0 size=    5496kB time=00:00:05.74 bitrate=7842.3kbits/s speed=0.0545x    frame=  290 fps=2.7 q=-0.0 size=    5701kB time=00:00:05.78 bitrate=8079.3kbits/s speed=0.0546x    frame=  292 fps=2.7 q=-0.0 size=    5701kB time=00:00:05.82 bitrate=8023.7kbits/s speed=0.0547x    frame=  294 fps=2.7 q=-0.0 size=    5701kB time=00:00:05.86 bitrate=7969.0kbits/s speed=0.0547x    frame=  296 fps=2.7 q=-0.0 size=    5701kB time=00:00:05.90 bitrate=7915.0kbits/s speed=0.0547x    frame=  298 fps=2.7 q=-0.0 size=    5701kB time=00:00:05.94 bitrate=7861.7kbits/s speed=0.0547x    frame=  300 fps=2.7 q=-0.0 size=    5701kB time=00:00:05.98 bitrate=7809.1kbits/s speed=0.0547x    frame=  302 fps=2.8 q=-0.0 size=    5905kB time=00:00:06.02 bitrate=8034.4kbits/s speed=0.0548x    frame=  304 fps=2.8 q=-0.0 size=    5905kB time=00:00:06.06 bitrate=7981.4kbits/s speed=0.0549x    frame=  306 fps=2.8 q=-0.0 size=    5905kB time=00:00:06.10 bitrate=7929.0kbits/s speed=0.0549x    frame=  308 fps=2.8 q=-0.0 size=    5905kB time=00:00:06.14 bitrate=7877.4kbits/s speed=0.0549x    frame=  310 fps=2.8 q=-0.0 size=    5905kB time=00:00:06.18 bitrate=7826.4kbits/s speed=0.0549x    frame=  312 fps=2.8 q=-0.0 size=    5905kB time=00:00:06.22 bitrate=7776.1kbits/s speed=0.0549x    frame=  314 fps=2.8 q=-0.0 size=    6107kB time=00:00:06.26 bitrate=7991.1kbits/s speed=0.055x    frame=  316 fps=2.8 q=-0.0 size=    6107kB time=00:00:06.30 bitrate=7940.4kbits/s speed=0.055x    frame=  318 fps=2.8 q=-0.0 size=    6107kB time=00:00:06.34 bitrate=7890.3kbits/s speed=0.055x    frame=  320 fps=2.8 q=-0.0 size=    6107kB time=00:00:06.38 bitrate=7840.8kbits/s speed=0.055x    frame=  322 fps=2.8 q=-0.0 size=    6107kB time=00:00:06.42 bitrate=7792.0kbits/s speed=0.055x    frame=  324 fps=2.8 q=-0.0 size=    6107kB time=00:00:06.46 bitrate=7743.7kbits/s speed=0.055x    frame=  326 fps=2.8 q=-0.0 size=    6317kB time=00:00:06.50 bitrate=7960.7kbits/s speed=0.0551x    frame=  328 fps=2.8 q=-0.0 size=    6317kB time=00:00:06.54 bitrate=7912.0kbits/s speed=0.0551x    frame=  330 fps=2.8 q=-0.0 size=    6317kB time=00:00:06.58 bitrate=7863.9kbits/s speed=0.0551x    frame=  332 fps=2.8 q=-0.0 size=    6317kB time=00:00:06.62 bitrate=7816.4kbits/s speed=0.0551x    frame=  334 fps=2.8 q=-0.0 size=    6317kB time=00:00:06.66 bitrate=7769.5kbits/s speed=0.0551x    frame=  336 fps=2.8 q=-0.0 size=    6317kB time=00:00:06.70 bitrate=7723.1kbits/s speed=0.0551x    frame=  338 fps=2.8 q=-0.0 size=    6522kB time=00:00:06.74 bitrate=7926.1kbits/s speed=0.0552x    frame=  340 fps=2.8 q=-0.0 size=    6522kB time=00:00:06.78 bitrate=7879.3kbits/s speed=0.0552x    frame=  342 fps=2.8 q=-0.0 size=    6522kB time=00:00:06.82 bitrate=7833.1kbits/s speed=0.0552x    frame=  344 fps=2.8 q=-0.0 size=    6522kB time=00:00:06.86 bitrate=7787.4kbits/s speed=0.0552x    frame=  346 fps=2.8 q=-0.0 size=    6522kB time=00:00:06.90 bitrate=7742.3kbits/s speed=0.0553x    frame=  348 fps=2.8 q=-0.0 size=    6522kB time=00:00:06.94 bitrate=7697.7kbits/s speed=0.0553x    frame=  350 fps=2.8 q=-0.0 size=    6723kB time=00:00:06.98 bitrate=7889.2kbits/s speed=0.0553x    frame=  352 fps=2.8 q=-0.0 size=    6723kB time=00:00:07.02 bitrate=7844.2kbits/s speed=0.0554x    frame=  354 fps=2.8 q=-0.0 size=    6723kB time=00:00:07.06 bitrate=7799.8kbits/s speed=0.0554x    frame=  356 fps=2.8 q=-0.0 size=    6723kB time=00:00:07.10 bitrate=7755.9kbits/s speed=0.0554x    frame=  358 fps=2.8 q=-0.0 size=    6723kB time=00:00:07.14 bitrate=7712.4kbits/s speed=0.0554x    frame=  360 fps=2.8 q=-0.0 size=    6723kB time=00:00:07.18 bitrate=7669.5kbits/s speed=0.0554x    frame=  362 fps=2.8 q=-0.0 size=    6923kB time=00:00:07.22 bitrate=7854.3kbits/s speed=0.0555x    frame=  364 fps=2.8 q=-0.0 size=    6923kB time=00:00:07.26 bitrate=7811.0kbits/s speed=0.0555x    frame=  366 fps=2.8 q=-0.0 size=    6923kB time=00:00:07.30 bitrate=7768.2kbits/s speed=0.0555x    frame=  368 fps=2.8 q=-0.0 size=    6923kB time=00:00:07.34 bitrate=7725.9kbits/s speed=0.0555x    frame=  370 fps=2.8 q=-0.0 size=    6923kB time=00:00:07.38 bitrate=7684.0kbits/s speed=0.0555x    frame=  372 fps=2.8 q=-0.0 size=    6923kB time=00:00:07.42 bitrate=7642.6kbits/s speed=0.0555x    frame=  374 fps=2.8 q=-0.0 size=    7127kB time=00:00:07.46 bitrate=7825.5kbits/s speed=0.0556x    frame=  376 fps=2.8 q=-0.0 size=    7127kB time=00:00:07.50 bitrate=7783.8kbits/s speed=0.0556x    frame=  378 fps=2.8 q=-0.0 size=    7127kB time=00:00:07.54 bitrate=7742.5kbits/s speed=0.0556x    frame=  380 fps=2.8 q=-0.0 size=    7127kB time=00:00:07.58 bitrate=7701.6kbits/s speed=0.0556x    frame=  382 fps=2.8 q=-0.0 size=    7127kB time=00:00:07.62 bitrate=7661.2kbits/s speed=0.0556x    frame=  384 fps=2.8 q=-0.0 size=    7127kB time=00:00:07.66 bitrate=7621.2kbits/s speed=0.0556x    frame=  386 fps=2.8 q=-0.0 size=    7335kB time=00:00:07.70 bitrate=7802.4kbits/s speed=0.0557x    frame=  388 fps=2.8 q=-0.0 size=    7335kB time=00:00:07.74 bitrate=7762.1kbits/s speed=0.0557x    frame=  390 fps=2.8 q=-0.0 size=    7335kB time=00:00:07.78 bitrate=7722.2kbits/s speed=0.0557x    frame=  392 fps=2.8 q=-0.0 size=    7335kB time=00:00:07.82 bitrate=7682.7kbits/s speed=0.0557x    frame=  394 fps=2.8 q=-0.0 size=    7335kB time=00:00:07.86 bitrate=7643.6kbits/s speed=0.0557x    frame=  396 fps=2.8 q=-0.0 size=    7335kB time=00:00:07.90 bitrate=7604.9kbits/s speed=0.0557x    frame=  398 fps=2.8 q=-0.0 size=    7545kB time=00:00:07.94 bitrate=7783.1kbits/s speed=0.0558x    frame=  400 fps=2.8 q=-0.0 size=    7545kB time=00:00:07.98 bitrate=7744.1kbits/s speed=0.0558x    frame=  402 fps=2.8 q=-0.0 size=    7545kB time=00:00:08.02 bitrate=7705.5kbits/s speed=0.0558x    frame=  404 fps=2.8 q=-0.0 size=    7545kB time=00:00:08.06 bitrate=7667.3kbits/s speed=0.0558x    frame=  406 fps=2.8 q=-0.0 size=    7545kB time=00:00:08.10 bitrate=7629.4kbits/s speed=0.0558x    frame=  408 fps=2.8 q=-0.0 size=    7545kB time=00:00:08.14 bitrate=7591.9kbits/s speed=0.0558x    frame=  410 fps=2.8 q=-0.0 size=    7755kB time=00:00:08.18 bitrate=7765.1kbits/s speed=0.0558x    frame=  412 fps=2.8 q=-0.0 size=    7755kB time=00:00:08.22 bitrate=7727.3kbits/s speed=0.0558x    frame=  414 fps=2.8 q=-0.0 size=    7755kB time=00:00:08.26 bitrate=7689.9kbits/s speed=0.0558x    frame=  416 fps=2.8 q=-0.0 size=    7755kB time=00:00:08.30 bitrate=7652.9kbits/s speed=0.0558x    frame=  418 fps=2.8 q=-0.0 size=    7755kB time=00:00:08.34 bitrate=7616.2kbits/s speed=0.0558x    frame=  420 fps=2.8 q=-0.0 size=    7755kB time=00:00:08.38 bitrate=7579.8kbits/s speed=0.0558x    frame=  422 fps=2.8 q=-0.0 size=    7959kB time=00:00:08.42 bitrate=7742.2kbits/s speed=0.0559x    frame=  424 fps=2.8 q=-0.0 size=    7959kB time=00:00:08.46 bitrate=7705.6kbits/s speed=0.0559x    frame=  426 fps=2.8 q=-0.0 size=    7959kB time=00:00:08.50 bitrate=7669.3kbits/s speed=0.0559x    frame=  428 fps=2.8 q=-0.0 size=    7959kB time=00:00:08.54 bitrate=7633.4kbits/s speed=0.0559x    frame=  430 fps=2.8 q=-0.0 size=    7959kB time=00:00:08.58 bitrate=7597.8kbits/s speed=0.0559x    frame=  432 fps=2.8 q=-0.0 size=    7959kB time=00:00:08.62 bitrate=7562.6kbits/s speed=0.0559x    frame=  434 fps=2.8 q=-0.0 size=    8164kB time=00:00:08.66 bitrate=7721.5kbits/s speed=0.0559x    frame=  436 fps=2.8 q=-0.0 size=    8164kB time=00:00:08.70 bitrate=7686.0kbits/s speed=0.0559x    frame=  438 fps=2.8 q=-0.0 size=    8164kB time=00:00:08.74 bitrate=7650.8kbits/s speed=0.0559x    frame=  440 fps=2.8 q=-0.0 size=    8164kB time=00:00:08.78 bitrate=7616.0kbits/s speed=0.0559x    frame=  442 fps=2.8 q=-0.0 size=    8164kB time=00:00:08.82 bitrate=7581.5kbits/s speed=0.0559x    frame=  444 fps=2.8 q=-0.0 size=    8164kB time=00:00:08.86 bitrate=7547.2kbits/s speed=0.0559x    frame=  446 fps=2.8 q=-0.0 size=    8373kB time=00:00:08.90 bitrate=7705.8kbits/s speed=0.056x    frame=  448 fps=2.8 q=-0.0 size=    8373kB time=00:00:08.94 bitrate=7671.3kbits/s speed=0.0559x    frame=  450 fps=2.8 q=-0.0 size=    8373kB time=00:00:08.98 bitrate=7637.1kbits/s speed=0.0559x    frame=  452 fps=2.8 q=-0.0 size=    8373kB time=00:00:09.02 bitrate=7603.2kbits/s speed=0.0559x    frame=  454 fps=2.8 q=-0.0 size=    8373kB time=00:00:09.06 bitrate=7569.7kbits/s speed=0.0559x    frame=  456 fps=2.8 q=-0.0 size=    8373kB time=00:00:09.10 bitrate=7536.4kbits/s speed=0.0559x    frame=  458 fps=2.8 q=-0.0 size=    8585kB time=00:00:09.14 bitrate=7693.6kbits/s speed=0.0559x    frame=  460 fps=2.8 q=-0.0 size=    8585kB time=00:00:09.18 bitrate=7660.1kbits/s speed=0.0559x    frame=  462 fps=2.8 q=-0.0 size=    8585kB time=00:00:09.22 bitrate=7626.9kbits/s speed=0.0559x    frame=  464 fps=2.8 q=-0.0 size=    8585kB time=00:00:09.26 bitrate=7593.9kbits/s speed=0.0559x    frame=  466 fps=2.8 q=-0.0 size=    8585kB time=00:00:09.30 bitrate=7561.3kbits/s speed=0.0559x    frame=  468 fps=2.8 q=-0.0 size=    8585kB time=00:00:09.34 bitrate=7528.9kbits/s speed=0.0559x    frame=  470 fps=2.8 q=-0.0 size=    8795kB time=00:00:09.38 bitrate=7680.5kbits/s speed=0.056x    frame=  472 fps=2.8 q=-0.0 size=    8795kB time=00:00:09.42 bitrate=7647.8kbits/s speed=0.056x    frame=  474 fps=2.8 q=-0.0 size=    8795kB time=00:00:09.46 bitrate=7615.5kbits/s speed=0.056x    frame=  476 fps=2.8 q=-0.0 size=    8795kB time=00:00:09.50 bitrate=7583.4kbits/s speed=0.056x    frame=  478 fps=2.8 q=-0.0 size=    8795kB time=00:00:09.54 bitrate=7551.7kbits/s speed=0.056x    frame=  480 fps=2.8 q=-0.0 size=    8795kB time=00:00:09.58 bitrate=7520.1kbits/s speed=0.056x    frame=  482 fps=2.8 q=-0.0 size=    9007kB time=00:00:09.62 bitrate=7669.0kbits/s speed=0.0561x    frame=  484 fps=2.8 q=-0.0 size=    9007kB time=00:00:09.66 bitrate=7637.3kbits/s speed=0.0561x    frame=  486 fps=2.8 q=-0.0 size=    9007kB time=00:00:09.70 bitrate=7605.8kbits/s speed=0.0561x    frame=  488 fps=2.8 q=-0.0 size=    9007kB time=00:00:09.74 bitrate=7574.5kbits/s speed=0.0561x    frame=  490 fps=2.8 q=-0.0 size=    9007kB time=00:00:09.78 bitrate=7543.6kbits/s speed=0.0561x    frame=  492 fps=2.8 q=-0.0 size=    9007kB time=00:00:09.82 bitrate=7512.8kbits/s speed=0.0561x    frame=  494 fps=2.8 q=-0.0 size=    9208kB time=00:00:09.86 bitrate=7649.8kbits/s speed=0.0561x    frame=  496 fps=2.8 q=-0.0 size=    9208kB time=00:00:09.90 bitrate=7618.9kbits/s speed=0.0561x    frame=  498 fps=2.8 q=-0.0 size=    9208kB time=00:00:09.94 bitrate=7588.3kbits/s speed=0.0561x    frame=  500 fps=2.8 q=-0.0 size=    9208kB time=00:00:09.98 bitrate=7557.9kbits/s speed=0.0561x    frame=  500 fps=2.8 q=-0.0 Lsize=    9334kB time=00:00:09.98 bitrate=7660.8kbits/s speed=0.056x    
video:9325kB audio:0kB subtitle:0kB other streams:0kB global headers:3kB muxing overhead: 0.093624%
bench: utime=156.408s
bench: maxrss=215960kB
